<svg width="86" height="86" viewBox="0 0 86 86" fill="none" xmlns="http://www.w3.org/2000/svg">
<path d="M70.0813 18.2406V27.821C70.1014 29.2573 69.566 30.6459 68.587 31.6971C67.608 32.7482 66.2608 33.3807 64.8267 33.4626C64.1031 33.4909 63.3813 33.3712 62.7056 33.111C62.0298 32.8507 61.4142 32.4553 60.8965 31.949C60.374 31.4441 59.9591 30.8386 59.6768 30.1691C59.3945 29.4995 59.2506 28.7798 59.2539 28.0532C59.2539 29.4901 58.6831 30.8682 57.667 31.8843C56.6509 32.9004 55.2729 33.4712 53.8359 33.4712C52.399 33.4712 51.0209 32.9004 50.0048 31.8843C48.9887 30.8682 48.4179 29.4901 48.4179 28.0532C48.4179 29.4901 47.8471 30.8682 46.831 31.8843C45.8149 32.9004 44.4369 33.4712 42.9999 33.4712C41.563 33.4712 40.1849 32.9004 39.1688 31.8843C38.1527 30.8682 37.5819 29.4901 37.5819 28.0532C37.5819 29.4901 37.0111 30.8682 35.995 31.8843C34.9789 32.9004 33.6009 33.4712 32.1639 33.4712C30.727 33.4712 29.3489 32.9004 28.3328 31.8843C27.3167 30.8682 26.7459 29.4901 26.7459 28.0532C26.7486 28.7782 26.6051 29.4963 26.3239 30.1646C26.0428 30.8329 25.6297 31.4376 25.1095 31.9426C24.5892 32.4476 23.9725 32.8424 23.2961 33.1036C22.6198 33.3648 21.8977 33.4869 21.1731 33.4626C19.739 33.3807 18.3919 32.7482 17.4128 31.6971C16.4338 30.6459 15.8984 29.2573 15.9185 27.821V18.2406C15.9185 17.5084 16.2094 16.8063 16.7271 16.2885C17.2448 15.7708 17.947 15.48 18.6791 15.48H67.3207C68.0529 15.48 68.755 15.7708 69.2728 16.2885C69.7905 16.8063 70.0813 17.5084 70.0813 18.2406ZM64.6031 36.9112C62.6613 36.9073 60.7762 36.2567 59.2453 35.0622C57.6952 36.2609 55.7911 36.9113 53.8316 36.9113C51.8721 36.9113 49.968 36.2609 48.4179 35.0622C46.8659 36.2602 44.9606 36.9101 42.9999 36.9101C41.0393 36.9101 39.1339 36.2602 37.5819 35.0622C36.0318 36.2609 34.1277 36.9113 32.1682 36.9113C30.2087 36.9113 28.3046 36.2609 26.7545 35.0622C25.2104 36.2556 23.3139 36.9029 21.3623 36.9026H20.9581V68.0948C20.9604 68.7388 21.2178 69.3556 21.674 69.8102C22.1302 70.2648 22.7479 70.52 23.3919 70.52H30.7965V45.0038H55.2033V70.52H62.6165C63.2605 70.52 63.8783 70.2648 64.3344 69.8102C64.7906 69.3556 65.048 68.7388 65.0503 68.0948V36.894H64.6031V36.9112ZM50.1121 50.1294C49.9904 50.1294 49.8736 50.1771 49.7867 50.2623C49.6999 50.3476 49.65 50.4635 49.6477 50.5852V54.4552C49.6477 54.5692 49.6024 54.6786 49.5218 54.7592C49.4411 54.8399 49.3318 54.8852 49.2177 54.8852C49.1037 54.8852 48.9943 54.8399 48.9137 54.7592C48.833 54.6786 48.7877 54.5692 48.7877 54.4552V50.5852C48.7855 50.4635 48.7355 50.3476 48.6487 50.2623C48.5618 50.1771 48.445 50.1294 48.3233 50.1294H48.1857C48.064 50.1294 47.9472 50.1771 47.8603 50.2623C47.7735 50.3476 47.7236 50.4635 47.7213 50.5852V54.4552C47.7213 54.5692 47.676 54.6786 47.5954 54.7592C47.5147 54.8399 47.4054 54.8852 47.2913 54.8852C47.1773 54.8852 47.0679 54.8399 46.9873 54.7592C46.9066 54.6786 46.8613 54.5692 46.8613 54.4552V50.5852C46.8613 50.4643 46.8133 50.3484 46.7278 50.2629C46.6423 50.1774 46.5264 50.1294 46.4055 50.1294H46.2593C46.1384 50.1294 46.0225 50.1774 45.937 50.2629C45.8515 50.3484 45.8035 50.4643 45.8035 50.5852V54.4552C45.8035 54.5692 45.7582 54.6786 45.6776 54.7592C45.5969 54.8399 45.4876 54.8852 45.3735 54.8852C45.2595 54.8852 45.1501 54.8399 45.0695 54.7592C44.9888 54.6786 44.9435 54.5692 44.9435 54.4552V50.5852C44.9435 50.462 44.8946 50.3439 44.8075 50.2568C44.7204 50.1697 44.6023 50.1208 44.4791 50.1208C44.3559 50.1208 44.2378 50.1697 44.1507 50.2568C44.0636 50.3439 44.0147 50.462 44.0147 50.5852V56.2956C44.0184 57.0164 44.2572 57.7164 44.6949 58.2891C45.1327 58.8619 45.7453 59.2761 46.4399 59.469L46.0013 69.1526C46.0013 69.5038 46.1408 69.8407 46.3892 70.0891C46.6376 70.3374 46.9745 70.477 47.3257 70.477C47.677 70.477 48.0138 70.3374 48.2622 70.0891C48.5106 69.8407 48.6501 69.5038 48.6501 69.1526L48.2115 59.4776C48.8827 59.2894 49.4746 58.8882 49.898 58.3345C50.3214 57.7807 50.5535 57.1044 50.5593 56.4074V50.5852C50.5572 50.4664 50.5097 50.353 50.4265 50.2682C50.3433 50.1834 50.2308 50.1338 50.1121 50.1294ZM38.6999 50.1294C36.9111 50.1294 35.4577 52.2966 35.4577 54.9712C35.4577 57.1814 36.4553 59.039 37.8055 59.6152L37.3755 69.1526C37.3755 69.3265 37.4098 69.4987 37.4763 69.6594C37.5429 69.8201 37.6404 69.9661 37.7634 70.0891C37.8864 70.2121 38.0324 70.3096 38.1931 70.3762C38.3538 70.4427 38.526 70.477 38.6999 70.477C38.8738 70.477 39.0461 70.4427 39.2067 70.3762C39.3674 70.3096 39.5134 70.2121 39.6364 70.0891C39.7594 69.9661 39.8569 69.8201 39.9235 69.6594C39.9901 69.4987 40.0243 69.3265 40.0243 69.1526L39.5599 59.6152C40.9187 59.039 41.9077 57.1814 41.9077 54.9712C41.8991 52.2966 40.4199 50.1294 38.6999 50.1294Z" fill="black"/>
</svg>
