<svg width="165" height="161" viewBox="0 0 165 161" fill="none" xmlns="http://www.w3.org/2000/svg">
<g clip-path="url(#clip0_208_90)">
<path d="M104.749 36.2084H60.2885C59.2753 36.2096 58.304 36.6125 57.5876 37.3286C56.8711 38.0448 56.4681 39.0157 56.4669 40.0285V138.805L55.9573 138.96L45.0505 142.299C44.5336 142.457 43.9753 142.403 43.4981 142.149C43.0209 141.896 42.6639 141.463 42.5054 140.947L10.0626 35.0139C9.90469 34.4972 9.9585 33.939 10.2122 33.4619C10.4659 32.9848 10.8986 32.628 11.4154 32.4697L28.2228 27.3252L76.9481 12.4165L93.7554 7.27199C94.0112 7.1933 94.28 7.1658 94.5464 7.19107C94.8128 7.21634 95.0716 7.29388 95.308 7.41926C95.5444 7.54463 95.7538 7.71537 95.9241 7.92172C96.0944 8.12806 96.2224 8.36595 96.3006 8.62178L104.593 35.699L104.749 36.2084Z" fill="#F2F2F2"/>
<path d="M114.451 35.6992L104.456 3.06492C104.29 2.52117 104.018 2.01551 103.656 1.57682C103.294 1.13813 102.85 0.775026 102.347 0.508241C101.845 0.241456 101.295 0.0762233 100.729 0.0219902C100.163 -0.0322429 99.5913 0.0255867 99.0475 0.192168L75.4173 7.42244L26.6946 22.3338L3.06448 29.5666C1.96675 29.9035 1.0476 30.6621 0.508794 31.6758C-0.0300149 32.6895 -0.144465 33.8754 0.190569 34.9734L34.3505 146.504C34.6227 147.39 35.1718 148.166 35.9174 148.717C36.663 149.269 37.5657 149.567 38.4932 149.568C38.9224 149.568 39.3493 149.504 39.7593 149.377L55.9578 144.421L56.4673 144.263V143.731L55.9578 143.886L39.6091 148.89C38.6401 149.186 37.5936 149.085 36.699 148.61C35.8044 148.135 35.1348 147.324 34.8372 146.356L0.679837 34.8231C0.532346 34.3435 0.480942 33.8396 0.528566 33.3401C0.576189 32.8407 0.721901 32.3555 0.957367 31.9124C1.19283 31.4693 1.51343 31.077 1.90078 30.7579C2.28814 30.4389 2.73465 30.1993 3.21475 30.053L26.8449 22.8202L75.5677 7.91143L99.1979 0.678606C99.562 0.567516 99.9406 0.510873 100.321 0.510518C101.138 0.512352 101.933 0.775677 102.59 1.26192C103.247 1.74817 103.73 2.43178 103.97 3.21264L113.919 35.6992L114.077 36.2086H114.607L114.451 35.6992Z" fill="#3F3D56"/>
<path d="M31.2557 32.553C30.7647 32.5527 30.2866 32.395 29.8918 32.1032C29.4969 31.8114 29.206 31.4007 29.0618 30.9316L25.7802 20.2168C25.692 19.929 25.6614 19.6267 25.6901 19.327C25.7189 19.0274 25.8064 18.7364 25.9476 18.4705C26.0889 18.2047 26.2812 17.9693 26.5135 17.7778C26.7458 17.5862 27.0136 17.4423 27.3015 17.3542L72.1259 3.63637C72.7074 3.45899 73.3356 3.51949 73.8725 3.80457C74.4094 4.08966 74.8112 4.57604 74.9898 5.15697L78.2713 15.8718C78.4487 16.4531 78.3881 17.0809 78.1029 17.6176C77.8177 18.1543 77.3313 18.556 76.7502 18.7345L31.9256 32.4524C31.7085 32.519 31.4828 32.5529 31.2557 32.553Z" fill="#00EE00"/>
<path d="M48.446 11.4489C51.2602 11.4489 53.5415 9.16846 53.5415 6.35538C53.5415 3.54229 51.2602 1.26184 48.446 1.26184C45.6319 1.26184 43.3506 3.54229 43.3506 6.35538C43.3506 9.16846 45.6319 11.4489 48.446 11.4489Z" fill="#00EE00"/>
<path d="M48.4463 9.58074C50.2283 9.58074 51.6729 8.13669 51.6729 6.35536C51.6729 4.57403 50.2283 3.12997 48.4463 3.12997C46.6643 3.12997 45.2197 4.57403 45.2197 6.35536C45.2197 8.13669 46.6643 9.58074 48.4463 9.58074Z" fill="white"/>
<path d="M153.536 148.266H67.4224C66.8483 148.265 66.2978 148.037 65.8918 147.631C65.4859 147.226 65.2575 146.675 65.2568 146.101V42.9573C65.2575 42.3834 65.4858 41.8331 65.8918 41.4273C66.2978 41.0215 66.8483 40.7932 67.4224 40.7925H153.536C154.11 40.7932 154.66 41.0215 155.066 41.4273C155.472 41.8331 155.7 42.3834 155.701 42.9573V146.101C155.7 146.675 155.472 147.226 155.066 147.631C154.66 148.037 154.11 148.265 153.536 148.266Z" fill="#E6E6E6"/>
<path d="M113.918 35.699H60.2882C59.14 35.7007 58.0393 36.1573 57.2274 36.9689C56.4155 37.7805 55.9587 38.8808 55.957 40.0285V143.886L56.4666 143.73V40.0285C56.4678 39.0158 56.8708 38.0448 57.5873 37.3286C58.3037 36.6125 59.275 36.2096 60.2882 36.2084H114.076L113.918 35.699ZM160.669 35.699H60.2882C59.14 35.7007 58.0393 36.1573 57.2274 36.9689C56.4155 37.7805 55.9587 38.8808 55.957 40.0285V156.671C55.9587 157.818 56.4155 158.919 57.2274 159.73C58.0393 160.542 59.14 160.998 60.2882 161H160.669C161.817 160.998 162.917 160.542 163.729 159.73C164.541 158.919 164.998 157.818 165 156.671V40.0285C164.998 38.8808 164.541 37.7805 163.729 36.9689C162.917 36.1573 161.817 35.7007 160.669 35.699ZM164.49 156.671C164.489 157.683 164.086 158.654 163.37 159.37C162.653 160.087 161.682 160.489 160.669 160.491H60.2882C59.275 160.489 58.3037 160.087 57.5873 159.37C56.8708 158.654 56.4678 157.683 56.4666 156.671V40.0285C56.4678 39.0158 56.8708 38.0448 57.5873 37.3286C58.3037 36.6125 59.275 36.2096 60.2882 36.2084H160.669C161.682 36.2096 162.653 36.6125 163.37 37.3286C164.086 38.0448 164.489 39.0158 164.49 40.0285V156.671Z" fill="#3F3D56"/>
<path d="M133.918 46.9048H87.04C86.4321 46.9041 85.8493 46.6624 85.4194 46.2327C84.9895 45.803 84.7478 45.2204 84.7471 44.6127V33.4069C84.7478 32.7992 84.9896 32.2166 85.4194 31.7869C85.8493 31.3572 86.4321 31.1155 87.04 31.1148H133.918C134.526 31.1155 135.109 31.3572 135.539 31.7869C135.969 32.2166 136.21 32.7992 136.211 33.4069V44.6127C136.21 45.2204 135.969 45.803 135.539 46.2327C135.109 46.6624 134.526 46.9041 133.918 46.9048Z" fill="#00EE00"/>
<path d="M110.478 31.8789C113.292 31.8789 115.574 29.5984 115.574 26.7853C115.574 23.9723 113.292 21.6918 110.478 21.6918C107.664 21.6918 105.383 23.9723 105.383 26.7853C105.383 29.5984 107.664 31.8789 110.478 31.8789Z" fill="#00EE00"/>
<path d="M110.479 29.8878C112.193 29.8878 113.582 28.4988 113.582 26.7853C113.582 25.0719 112.193 23.6829 110.479 23.6829C108.765 23.6829 107.375 25.0719 107.375 26.7853C107.375 28.4988 108.765 29.8878 110.479 29.8878Z" fill="white"/>
</g>
<defs>
<clipPath id="clip0_208_90">
<rect width="165" height="161" fill="white"/>
</clipPath>
</defs>
</svg>
